<svg xmlns="http://www.w3.org/2000/svg" viewBox="0 0 1200 360" role="img" aria-label="初次上陣">
<defs><linearGradient id="metal" x2="0" y2="1"><stop stop-color="#e9fcff"/><stop offset=".21" stop-color="#20424a"/><stop offset=".53" stop-color="#0a1525"/><stop offset=".8" stop-color="#20424a"/><stop offset="1" stop-color="#9cc4cc"/></linearGradient><radialGradient id="glow"><stop stop-color="#9cc4cc" stop-opacity=".55"/><stop offset="1" stop-color="#9cc4cc" stop-opacity="0"/></radialGradient><filter id="shine" x="-20%" y="-60%" width="140%" height="220%"><feGaussianBlur stdDeviation="8"/></filter></defs>
<ellipse cx="600" cy="180" rx="590" ry="170" fill="url(#glow)"/><path d="M55 180 105 95 185 95 220 43 980 43 1015 95 1095 95 1145 180 1095 265 1015 265 980 317 220 317 185 265 105 265Z" fill="url(#metal)" stroke="#e9fcff" stroke-width="7"/><path d="M70 180 116 108 194 108 230 57 970 57 1006 108 1084 108 1130 180 1084 252 1006 252 970 303 230 303 194 252 116 252Z" fill="none" stroke="#9cc4cc" stroke-width="7"/><path d="M130 180 195 125 265 125 285 85 915 85 935 125 1005 125 1070 180 1005 235 935 235 915 275 285 275 265 235 195 235Z" fill="#07121f" fill-opacity=".86" stroke="#e9fcff" stroke-opacity=".65" stroke-width="3"/><path d="M210 180h130m520 0h130" stroke="#9cc4cc" stroke-width="3"/><path d="M600 73v42m0 130v42M175 180h75m700 0h75" stroke="#e9fcff" stroke-width="8" filter="url(#shine)"/><path d="m171 180 24-24 24 24-24 24Zm810 0 24-24 24 24-24 24Z" fill="#9cc4cc" stroke="#e9fcff" stroke-width="4"/><circle cx="273" cy="180" r="24" fill="#20424a" stroke="#e9fcff" stroke-width="5"/><circle cx="927" cy="180" r="24" fill="#20424a" stroke="#e9fcff" stroke-width="5"/><circle cx="273" cy="180" r="9" fill="#9cc4cc"/><circle cx="927" cy="180" r="9" fill="#9cc4cc"/><text x="600" y="204" text-anchor="middle" font-family="Noto Sans TC, Microsoft JhengHei, sans-serif" font-size="94" font-weight="900" letter-spacing="13" fill="#030913" stroke="#030913" stroke-width="11" paint-order="stroke">初次上陣</text><text x="600" y="204" text-anchor="middle" font-family="Noto Sans TC, Microsoft JhengHei, sans-serif" font-size="94" font-weight="900" letter-spacing="13" fill="#e9fcff">初次上陣</text></svg>